<mxfile host="app.diagrams.net" modified="2023-11-02T16:28:43.589Z" agent="Mozilla/5.0 (Windows NT 10.0; Win64; x64) AppleWebKit/537.36 (KHTML, like Gecko) Chrome/119.0.0.0 Safari/537.36" etag="2QObtmV05mPkVta9HGhO" version="22.0.8" type="github">
  <diagram id="C5RBs43oDa-KdzZeNtuy" name="Page-1">
    <mxGraphModel dx="2220" dy="1145" grid="1" gridSize="10" guides="1" tooltips="1" connect="1" arrows="1" fold="1" page="1" pageScale="1" pageWidth="827" pageHeight="1169" math="0" shadow="0">
      <root>
        <mxCell id="WIyWlLk6GJQsqaUBKTNV-0" />
        <mxCell id="WIyWlLk6GJQsqaUBKTNV-1" parent="WIyWlLk6GJQsqaUBKTNV-0" />
        <mxCell id="6a7iETnhF9m00vz2kKRm-0" value="&lt;i&gt;AbstractFolderFile&lt;/i&gt;" style="swimlane;fontStyle=1;align=center;verticalAlign=top;childLayout=stackLayout;horizontal=1;startSize=26;horizontalStack=0;resizeParent=1;resizeParentMax=0;resizeLast=0;collapsible=1;marginBottom=0;whiteSpace=wrap;html=1;" parent="WIyWlLk6GJQsqaUBKTNV-1" vertex="1">
          <mxGeometry x="250" y="10" width="250" height="230" as="geometry" />
        </mxCell>
        <mxCell id="6a7iETnhF9m00vz2kKRm-1" value="- dateOfCreation: string&lt;br&gt;- name: string&lt;br&gt;- size: int" style="text;strokeColor=none;fillColor=none;align=left;verticalAlign=top;spacingLeft=4;spacingRight=4;overflow=hidden;rotatable=0;points=[[0,0.5],[1,0.5]];portConstraint=eastwest;whiteSpace=wrap;html=1;" parent="6a7iETnhF9m00vz2kKRm-0" vertex="1">
          <mxGeometry y="26" width="250" height="54" as="geometry" />
        </mxCell>
        <mxCell id="6a7iETnhF9m00vz2kKRm-2" value="" style="line;strokeWidth=1;fillColor=none;align=left;verticalAlign=middle;spacingTop=-1;spacingLeft=3;spacingRight=3;rotatable=0;labelPosition=right;points=[];portConstraint=eastwest;strokeColor=inherit;" parent="6a7iETnhF9m00vz2kKRm-0" vertex="1">
          <mxGeometry y="80" width="250" height="8" as="geometry" />
        </mxCell>
        <mxCell id="6a7iETnhF9m00vz2kKRm-3" value="# AbstractFolderFile(name: string, size: float)&lt;br&gt;+ getDateOfCreation(): string&lt;br&gt;+ getName(): string&lt;br&gt;+ getSize(): float&lt;br&gt;+ print(): void&lt;br&gt;- setDateOfCreation(): void&lt;br&gt;+ setName(name: string): void&lt;br&gt;# setSize(size: float): coid&lt;br&gt;+ &lt;i&gt;toString(): string&lt;/i&gt;" style="text;strokeColor=none;fillColor=none;align=left;verticalAlign=top;spacingLeft=4;spacingRight=4;overflow=hidden;rotatable=0;points=[[0,0.5],[1,0.5]];portConstraint=eastwest;whiteSpace=wrap;html=1;" parent="6a7iETnhF9m00vz2kKRm-0" vertex="1">
          <mxGeometry y="88" width="250" height="142" as="geometry" />
        </mxCell>
        <mxCell id="6a7iETnhF9m00vz2kKRm-28" style="edgeStyle=orthogonalEdgeStyle;rounded=0;orthogonalLoop=1;jettySize=auto;html=1;exitX=0.5;exitY=0;exitDx=0;exitDy=0;entryX=0;entryY=0.5;entryDx=0;entryDy=0;endArrow=block;endFill=1;" parent="WIyWlLk6GJQsqaUBKTNV-1" source="6a7iETnhF9m00vz2kKRm-8" target="6a7iETnhF9m00vz2kKRm-3" edge="1">
          <mxGeometry relative="1" as="geometry" />
        </mxCell>
        <mxCell id="6a7iETnhF9m00vz2kKRm-8" value="Folder" style="swimlane;fontStyle=1;align=center;verticalAlign=top;childLayout=stackLayout;horizontal=1;startSize=26;horizontalStack=0;resizeParent=1;resizeParentMax=0;resizeLast=0;collapsible=1;marginBottom=0;whiteSpace=wrap;html=1;" parent="WIyWlLk6GJQsqaUBKTNV-1" vertex="1">
          <mxGeometry x="50" y="300" width="190" height="390" as="geometry" />
        </mxCell>
        <mxCell id="6a7iETnhF9m00vz2kKRm-9" value="- folders: Folder*&lt;br&gt;- files: File*&lt;br&gt;- foldersSize: int&lt;br&gt;- filesSize: int&lt;br&gt;- foldersSizeMax: int&lt;br&gt;- filesSizeMax: int" style="text;strokeColor=none;fillColor=none;align=left;verticalAlign=top;spacingLeft=4;spacingRight=4;overflow=hidden;rotatable=0;points=[[0,0.5],[1,0.5]];portConstraint=eastwest;whiteSpace=wrap;html=1;" parent="6a7iETnhF9m00vz2kKRm-8" vertex="1">
          <mxGeometry y="26" width="190" height="94" as="geometry" />
        </mxCell>
        <mxCell id="6a7iETnhF9m00vz2kKRm-10" value="" style="line;strokeWidth=1;fillColor=none;align=left;verticalAlign=middle;spacingTop=-1;spacingLeft=3;spacingRight=3;rotatable=0;labelPosition=right;points=[];portConstraint=eastwest;strokeColor=inherit;" parent="6a7iETnhF9m00vz2kKRm-8" vertex="1">
          <mxGeometry y="120" width="190" height="8" as="geometry" />
        </mxCell>
        <mxCell id="6a7iETnhF9m00vz2kKRm-11" value="+ ~Folder()&lt;br&gt;- Folder()&lt;br&gt;+ Folder(name: string)&lt;br&gt;+ addFile(name: string): bool&lt;br&gt;+ addFolder(name: string): bool&lt;br&gt;+ getFile(index: int): File&lt;br&gt;+ getFileLargest(): File&lt;br&gt;+ getFolder(index: int): Folder&lt;br&gt;+ getFolder(name: string): Folder&lt;br&gt;+ hasFile(name: string): bool&lt;br&gt;+ hasFolder(name: string): bool&lt;br&gt;- makeFile(): bool&lt;br&gt;- makeFolder(): bool&lt;br&gt;- openFile(): bool&lt;br&gt;- openFolder(): bool&lt;br&gt;+ operateFolder(): bool&lt;br&gt;+ toString(): string" style="text;strokeColor=none;fillColor=none;align=left;verticalAlign=top;spacingLeft=4;spacingRight=4;overflow=hidden;rotatable=0;points=[[0,0.5],[1,0.5]];portConstraint=eastwest;whiteSpace=wrap;html=1;" parent="6a7iETnhF9m00vz2kKRm-8" vertex="1">
          <mxGeometry y="128" width="190" height="262" as="geometry" />
        </mxCell>
        <mxCell id="gnhwHhYgruaghe89ia_T-4" style="edgeStyle=orthogonalEdgeStyle;rounded=0;orthogonalLoop=1;jettySize=auto;html=1;entryX=0.737;entryY=1;entryDx=0;entryDy=0;entryPerimeter=0;startArrow=diamond;startFill=1;endArrow=none;endFill=0;" edge="1" parent="6a7iETnhF9m00vz2kKRm-8" source="6a7iETnhF9m00vz2kKRm-8" target="6a7iETnhF9m00vz2kKRm-11">
          <mxGeometry relative="1" as="geometry">
            <Array as="points">
              <mxPoint x="95" y="450" />
              <mxPoint x="140" y="450" />
            </Array>
          </mxGeometry>
        </mxCell>
        <mxCell id="gnhwHhYgruaghe89ia_T-1" style="edgeStyle=orthogonalEdgeStyle;rounded=0;orthogonalLoop=1;jettySize=auto;html=1;exitX=0.5;exitY=0;exitDx=0;exitDy=0;entryX=1;entryY=0.5;entryDx=0;entryDy=0;endArrow=block;endFill=1;" edge="1" parent="WIyWlLk6GJQsqaUBKTNV-1" source="6a7iETnhF9m00vz2kKRm-12" target="6a7iETnhF9m00vz2kKRm-3">
          <mxGeometry relative="1" as="geometry" />
        </mxCell>
        <mxCell id="6a7iETnhF9m00vz2kKRm-12" value="File" style="swimlane;fontStyle=1;align=center;verticalAlign=top;childLayout=stackLayout;horizontal=1;startSize=26;horizontalStack=0;resizeParent=1;resizeParentMax=0;resizeLast=0;collapsible=1;marginBottom=0;whiteSpace=wrap;html=1;" parent="WIyWlLk6GJQsqaUBKTNV-1" vertex="1">
          <mxGeometry x="480" y="300" width="210" height="120" as="geometry" />
        </mxCell>
        <mxCell id="6a7iETnhF9m00vz2kKRm-14" value="" style="line;strokeWidth=1;fillColor=none;align=left;verticalAlign=middle;spacingTop=-1;spacingLeft=3;spacingRight=3;rotatable=0;labelPosition=right;points=[];portConstraint=eastwest;strokeColor=inherit;" parent="6a7iETnhF9m00vz2kKRm-12" vertex="1">
          <mxGeometry y="26" width="210" height="14" as="geometry" />
        </mxCell>
        <mxCell id="6a7iETnhF9m00vz2kKRm-15" value="+ File()&lt;br&gt;+ File(name: string)&lt;br&gt;+ File(name: string, size: float)&lt;br&gt;+ operateFile(): bool&lt;br&gt;+ toString(): string" style="text;strokeColor=none;fillColor=none;align=left;verticalAlign=top;spacingLeft=4;spacingRight=4;overflow=hidden;rotatable=0;points=[[0,0.5],[1,0.5]];portConstraint=eastwest;whiteSpace=wrap;html=1;" parent="6a7iETnhF9m00vz2kKRm-12" vertex="1">
          <mxGeometry y="40" width="210" height="80" as="geometry" />
        </mxCell>
        <mxCell id="6a7iETnhF9m00vz2kKRm-24" value="Input.h" style="swimlane;fontStyle=1;align=center;verticalAlign=top;childLayout=stackLayout;horizontal=1;startSize=26;horizontalStack=0;resizeParent=1;resizeParentMax=0;resizeLast=0;collapsible=1;marginBottom=0;whiteSpace=wrap;html=1;" parent="WIyWlLk6GJQsqaUBKTNV-1" vertex="1">
          <mxGeometry x="295" y="490" width="160" height="60" as="geometry" />
        </mxCell>
        <mxCell id="6a7iETnhF9m00vz2kKRm-26" value="" style="line;strokeWidth=1;fillColor=none;align=left;verticalAlign=middle;spacingTop=-1;spacingLeft=3;spacingRight=3;rotatable=0;labelPosition=right;points=[];portConstraint=eastwest;strokeColor=inherit;" parent="6a7iETnhF9m00vz2kKRm-24" vertex="1">
          <mxGeometry y="26" width="160" height="8" as="geometry" />
        </mxCell>
        <mxCell id="6a7iETnhF9m00vz2kKRm-27" value="+ &lt;u&gt;inputInt(): int&lt;/u&gt;" style="text;strokeColor=none;fillColor=none;align=left;verticalAlign=top;spacingLeft=4;spacingRight=4;overflow=hidden;rotatable=0;points=[[0,0.5],[1,0.5]];portConstraint=eastwest;whiteSpace=wrap;html=1;" parent="6a7iETnhF9m00vz2kKRm-24" vertex="1">
          <mxGeometry y="34" width="160" height="26" as="geometry" />
        </mxCell>
        <mxCell id="gnhwHhYgruaghe89ia_T-0" style="edgeStyle=orthogonalEdgeStyle;rounded=0;orthogonalLoop=1;jettySize=auto;html=1;exitX=1;exitY=0.5;exitDx=0;exitDy=0;entryX=-0.005;entryY=0.408;entryDx=0;entryDy=0;entryPerimeter=0;startArrow=diamondThin;startFill=1;endArrow=none;endFill=0;" edge="1" parent="WIyWlLk6GJQsqaUBKTNV-1" source="6a7iETnhF9m00vz2kKRm-9" target="6a7iETnhF9m00vz2kKRm-15">
          <mxGeometry relative="1" as="geometry" />
        </mxCell>
        <mxCell id="gnhwHhYgruaghe89ia_T-2" style="edgeStyle=orthogonalEdgeStyle;rounded=0;orthogonalLoop=1;jettySize=auto;html=1;entryX=0;entryY=0.5;entryDx=0;entryDy=0;dashed=1;endArrow=open;endFill=0;" edge="1" parent="WIyWlLk6GJQsqaUBKTNV-1" target="6a7iETnhF9m00vz2kKRm-24">
          <mxGeometry relative="1" as="geometry">
            <mxPoint x="240" y="520" as="sourcePoint" />
            <Array as="points">
              <mxPoint x="240" y="520" />
            </Array>
          </mxGeometry>
        </mxCell>
        <mxCell id="gnhwHhYgruaghe89ia_T-3" style="edgeStyle=orthogonalEdgeStyle;rounded=0;orthogonalLoop=1;jettySize=auto;html=1;exitX=0.417;exitY=1.033;exitDx=0;exitDy=0;entryX=1;entryY=0.5;entryDx=0;entryDy=0;dashed=1;endArrow=open;endFill=0;exitPerimeter=0;" edge="1" parent="WIyWlLk6GJQsqaUBKTNV-1" source="6a7iETnhF9m00vz2kKRm-15" target="6a7iETnhF9m00vz2kKRm-24">
          <mxGeometry relative="1" as="geometry">
            <Array as="points">
              <mxPoint x="568" y="520" />
            </Array>
          </mxGeometry>
        </mxCell>
      </root>
    </mxGraphModel>
  </diagram>
</mxfile>
